<?xml version="1.0" encoding="utf-8"?>
<!-- Generator: Adobe Illustrator 26.4.1, SVG Export Plug-In . SVG Version: 6.00 Build 0)  -->
<svg version="1.1" id="Capa_1" xmlns="http://www.w3.org/2000/svg" xmlns:xlink="http://www.w3.org/1999/xlink" x="0px" y="0px"
	 viewBox="0 0 1920 609.01" style="enable-background:new 0 0 1920 609.01;" xml:space="preserve">
<style type="text/css">
	.st0{fill:#2A2A29;}
	.st1{fill:#A47E3B;}
	.st2{fill:#61481C;}
</style>
<g>
	<g>
		<g>
			<g>
				<g>
					<path class="st0" d="M664.22,479.35c-0.54,4.98-1.71,9.45-3.5,13.39c-1.8,3.95-4.21,7.29-7.24,10.03
						c-3.03,2.73-6.66,4.83-10.9,6.29c-4.24,1.46-9.05,2.19-14.44,2.19c-5.56,0-10.61-1.05-15.14-3.16
						c-4.53-2.11-8.41-5.1-11.64-8.98c-3.23-3.88-5.72-8.54-7.47-13.96c-1.75-5.43-2.63-11.44-2.63-18.04v-12.32
						c0-6.6,0.88-12.62,2.63-18.07c1.75-5.45,4.25-10.11,7.5-13.96c3.25-3.86,7.19-6.85,11.81-8.99c4.62-2.13,9.8-3.2,15.55-3.2
						c5.2,0,9.89,0.72,14.07,2.16s7.75,3.53,10.73,6.29s5.38,6.13,7.2,10.1s2.97,8.47,3.47,13.49h-8.35
						c-0.5-3.95-1.39-7.48-2.69-10.6c-1.3-3.12-3.06-5.73-5.28-7.84c-2.22-2.11-4.91-3.72-8.08-4.85
						c-3.16-1.12-6.85-1.68-11.07-1.68c-4.58,0-8.66,0.89-12.25,2.66c-3.59,1.77-6.64,4.27-9.15,7.5
						c-2.51,3.23-4.43,7.12-5.75,11.68c-1.32,4.55-1.99,9.61-1.99,15.17v12.45c0,5.39,0.63,10.35,1.88,14.91
						c1.26,4.56,3.1,8.48,5.52,11.78s5.41,5.87,8.95,7.71c3.54,1.84,7.6,2.76,12.18,2.76c8.66,0,15.19-2.08,19.58-6.23
						c4.4-4.15,7.11-10.37,8.14-18.67H664.22z"/>
				</g>
				<g>
					<g>
						<path class="st1" d="M891.5,138.85c-23.57,20.5-26.29,50.49-26.29,71.26V369.4h60.36l49.63-47.22l49.63,47.22h60.42V114.79
							H979.68C938.95,114.79,910.11,122.66,891.5,138.85z M929.75,166.51c12.27-9.67,29.06-14.57,49.92-14.57h57.11v169.34
							l-61.59-60.69l-63.76,60.69V212.97C911.43,191.7,917.6,176.07,929.75,166.51z"/>
						<path class="st1" d="M1132.45,151.94h146.41c-3.36,9.98-8.89,19.94-16.47,29.64c-8.63,11.05-16.9,19.98-24.6,26.56
							c-7.8,6.67-18.95,15.41-33.14,25.99c-22.8,17.18-40.68,34.79-53.15,52.37c-12.65,17.81-19.06,39.45-19.06,64.31v18.57h198.14
							v-37.15h-147.34c2.62-13.48,8.3-25.57,16.89-35.98c9.44-11.43,23.57-23.48,42.04-35.84c39.89-27.43,66.7-55.69,79.67-84
							c5.8-12.63,8.74-32.38,8.74-58.7v-2.94h-198.14V151.94z"/>
						<path class="st1" d="M1395.53,148.03c-27.86,22.15-42.13,53.79-42.43,94.04v0.04c0.3,40.25,14.57,71.89,42.43,94.04
							c27.73,22.06,66.41,33.24,114.94,33.24h32.27v-37.15h-37.63c-31.98,0-56.81-8.47-73.81-25.17
							c-17.09-16.78-26.04-38.66-26.62-64.92c0.57-26.37,9.53-48.25,26.62-65.03c17-16.7,41.83-25.17,73.81-25.17h37.63v-37.15
							h-32.27C1461.94,114.79,1423.26,125.98,1395.53,148.03z"/>
						<path class="st1" d="M789.52,135.15c-18.67-13.51-47.16-20.36-84.66-20.36H591.27v254.6h48.45V151.94h65.58
							c19.53,0,35.41,3.49,47.18,10.37c11.48,6.71,17.06,17.35,17.06,32.52v174.55H818V199.45
							C818,170.46,808.42,148.82,789.52,135.15z"/>
						<path class="st1" d="M1704.44,114.79c-40.72,0-69.57,7.87-88.18,24.06c-23.3,20.24-26.29,48.71-26.29,71.26V369.4h60.36
							l49.66-47.38l49.62,47.38H1810V114.79H1704.44z M1636.19,212.97c0-21.29,6.16-36.92,18.32-46.45
							c12.27-9.67,29.07-14.57,49.93-14.57h57.11v169.21l-61.56-60.91l-63.79,60.91V212.97z"/>
					</g>
					<g>
						<path class="st0" d="M675.26,472.42c0-5.29,0.78-10.19,2.32-14.67c1.55-4.49,3.74-8.36,6.56-11.61
							c2.83-3.25,6.24-5.8,10.23-7.64c3.99-1.84,8.43-2.76,13.33-2.76c4.98,0,9.48,0.92,13.49,2.76c4.02,1.84,7.44,4.39,10.26,7.64
							c2.83,3.25,5,7.12,6.53,11.61c1.52,4.48,2.29,9.38,2.29,14.67v2.22c0,5.3-0.76,10.19-2.29,14.67
							c-1.53,4.48-3.7,8.36-6.53,11.61c-2.83,3.25-6.24,5.79-10.23,7.61c-3.99,1.81-8.46,2.72-13.39,2.72s-9.4-0.91-13.39-2.72
							c-3.99-1.82-7.41-4.35-10.26-7.61c-2.85-3.25-5.05-7.12-6.6-11.61c-1.55-4.49-2.32-9.38-2.32-14.67V472.42z M683.34,474.64
							c0,4,0.54,7.8,1.62,11.41c1.08,3.61,2.65,6.78,4.71,9.49c2.06,2.72,4.62,4.88,7.67,6.49c3.05,1.62,6.55,2.43,10.5,2.43
							c3.95,0,7.44-0.81,10.47-2.43c3.03-1.62,5.57-3.78,7.64-6.49c2.06-2.71,3.63-5.88,4.71-9.49c1.08-3.61,1.62-7.41,1.62-11.41
							v-2.22c0-3.9-0.54-7.66-1.62-11.27c-1.08-3.61-2.65-6.79-4.71-9.52c-2.07-2.73-4.63-4.92-7.71-6.56
							c-3.07-1.64-6.58-2.46-10.53-2.46c-3.9,0-7.37,0.82-10.4,2.46c-3.03,1.64-5.58,3.83-7.64,6.56c-2.06,2.74-3.63,5.91-4.71,9.52
							c-1.08,3.61-1.62,7.37-1.62,11.27V474.64z"/>
					</g>
					<g>
						<path class="st0" d="M761.81,437.09l0.27,12.45c1.25-2.06,2.7-3.95,4.34-5.65c1.64-1.71,3.47-3.16,5.49-4.37
							c2.02-1.21,4.2-2.14,6.53-2.79s4.8-0.98,7.4-0.98c3.63,0,6.89,0.5,9.76,1.48c2.87,0.99,5.31,2.56,7.3,4.71
							c1.99,2.15,3.52,4.92,4.58,8.31c1.05,3.39,1.58,7.48,1.58,12.28v47.38h-8.01v-47.45c0-3.77-0.4-6.91-1.21-9.42
							c-0.81-2.51-1.95-4.53-3.43-6.05c-1.48-1.52-3.29-2.61-5.42-3.27c-2.13-0.65-4.5-0.97-7.1-0.97c-2.87,0-5.47,0.48-7.81,1.45
							c-2.33,0.97-4.4,2.25-6.19,3.87c-1.8,1.62-3.34,3.47-4.64,5.55c-1.3,2.08-2.33,4.23-3.09,6.43v49.87h-8.01v-72.82H761.81z"/>
					</g>
					<g>
						<path class="st0" d="M870.71,491.4c0-1.48-0.26-2.96-0.77-4.44c-0.52-1.48-1.48-2.88-2.89-4.21c-1.41-1.33-3.39-2.56-5.92-3.7
							c-2.54-1.15-5.82-2.14-9.86-2.99c-4.04-0.85-7.64-1.84-10.8-2.96c-3.16-1.12-5.83-2.48-8.01-4.07
							c-2.18-1.59-3.83-3.49-4.95-5.69c-1.12-2.2-1.68-4.78-1.68-7.74c0-2.69,0.59-5.25,1.78-7.67c1.19-2.42,2.89-4.53,5.11-6.33
							c2.22-1.8,4.91-3.22,8.08-4.27c3.16-1.05,6.72-1.58,10.67-1.58c4.22,0,8,0.55,11.34,1.65c3.34,1.1,6.17,2.63,8.48,4.58
							c2.31,1.95,4.07,4.25,5.28,6.9c1.21,2.65,1.82,5.52,1.82,8.62h-8.08c0-1.89-0.42-3.72-1.25-5.52
							c-0.83-1.8-2.04-3.38-3.63-4.75c-1.59-1.37-3.57-2.48-5.92-3.33c-2.36-0.85-5.04-1.28-8.04-1.28c-3.14,0-5.82,0.38-8.04,1.14
							c-2.22,0.77-4.04,1.75-5.45,2.96c-1.41,1.21-2.45,2.57-3.1,4.07c-0.65,1.5-0.98,3.02-0.98,4.54c0,1.62,0.25,3.08,0.74,4.41
							c0.49,1.33,1.45,2.56,2.86,3.7c1.41,1.14,3.39,2.2,5.92,3.16c2.53,0.97,5.84,1.92,9.93,2.86c4.4,1.03,8.19,2.17,11.37,3.43
							c3.19,1.26,5.82,2.75,7.91,4.48c2.09,1.73,3.64,3.7,4.64,5.92c1.01,2.22,1.52,4.79,1.52,7.71c0,3-0.63,5.75-1.89,8.24
							c-1.26,2.49-3.05,4.62-5.38,6.39c-2.33,1.77-5.16,3.15-8.48,4.14c-3.32,0.99-7.02,1.48-11.1,1.48c-4.62,0-8.7-0.59-12.25-1.78
							c-3.55-1.19-6.53-2.79-8.95-4.81c-2.42-2.02-4.25-4.34-5.49-6.96c-1.23-2.63-1.85-5.35-1.85-8.18h8.08
							c0.18,2.87,0.92,5.26,2.22,7.17c1.3,1.91,2.92,3.43,4.85,4.57c1.93,1.15,4.07,1.96,6.43,2.46c2.35,0.5,4.68,0.74,6.97,0.74
							c3.05,0,5.74-0.36,8.08-1.08c2.33-0.72,4.3-1.68,5.89-2.9c1.59-1.21,2.79-2.6,3.6-4.17
							C870.3,494.74,870.71,493.1,870.71,491.4z"/>
					</g>
					<g>
						<path class="st0" d="M906.65,418.45v18.64h15.08v6.6h-15.08v48.52c0,2.56,0.26,4.61,0.77,6.16c0.51,1.55,1.21,2.76,2.09,3.63
							c0.88,0.88,1.88,1.46,3.03,1.75c1.14,0.29,2.34,0.44,3.6,0.44c1.21,0,2.38-0.08,3.5-0.24c1.12-0.16,2.13-0.3,3.03-0.44
							l0.34,6.6c-0.99,0.36-2.28,0.64-3.87,0.84c-1.59,0.2-3.18,0.3-4.75,0.3c-2.29,0-4.41-0.3-6.36-0.91
							c-1.95-0.6-3.62-1.65-5.01-3.13c-1.39-1.48-2.48-3.44-3.26-5.89c-0.79-2.45-1.18-5.48-1.18-9.12v-48.52h-13.39v-6.6h13.39
							v-18.64H906.65z"/>
					</g>
					<g>
						<path class="st0" d="M969.31,443.95c-1.71-0.31-3.52-0.47-5.45-0.47c-2.74,0-5.21,0.4-7.4,1.21c-2.2,0.81-4.14,1.94-5.82,3.4
							c-1.68,1.46-3.1,3.19-4.24,5.18c-1.14,2-2.05,4.21-2.73,6.63v50h-8.01v-72.82h7.87l0.14,11.58c1.97-4,4.65-7.15,8.04-9.46
							c3.39-2.31,7.55-3.47,12.49-3.47c0.98,0,1.99,0.09,3.03,0.27c1.03,0.18,1.8,0.38,2.29,0.6L969.31,443.95z"/>
					</g>
					<g>
						<path class="st0" d="M1026.11,500.69c-2.29,3.32-5.33,5.91-9.12,7.77c-3.79,1.86-8.49,2.79-14.1,2.79
							c-3.59,0-6.84-0.5-9.76-1.51c-2.92-1.01-5.43-2.61-7.54-4.81c-2.11-2.2-3.74-5.04-4.88-8.51c-1.15-3.47-1.72-7.71-1.72-12.69
							v-46.64h8.01v46.77c0,3.91,0.45,7.16,1.34,9.76c0.9,2.6,2.11,4.69,3.64,6.26c1.53,1.57,3.31,2.69,5.35,3.37
							c2.04,0.67,4.21,1.01,6.49,1.01c3.23,0,6.08-0.36,8.55-1.08c2.46-0.72,4.6-1.73,6.39-3.03c1.8-1.3,3.28-2.83,4.44-4.58
							c1.16-1.75,2.08-3.68,2.76-5.79v-52.7h8.08v72.82h-7.81L1026.11,500.69z"/>
					</g>
					<g>
						<path class="st0" d="M1079.15,504.46c2.56,0,5.01-0.37,7.37-1.11c2.36-0.74,4.45-1.83,6.29-3.26
							c1.84-1.43,3.35-3.21,4.54-5.32c1.19-2.11,1.87-4.55,2.05-7.34h7.74c-0.18,3.46-1.04,6.64-2.59,9.56
							c-1.55,2.91-3.59,5.43-6.13,7.53c-2.54,2.11-5.46,3.76-8.78,4.95c-3.32,1.19-6.82,1.78-10.5,1.78c-5.12,0-9.6-0.93-13.46-2.79
							c-3.86-1.86-7.1-4.43-9.72-7.71c-2.63-3.28-4.6-7.12-5.92-11.54c-1.33-4.42-1.99-9.19-1.99-14.3v-2.83
							c0-5.11,0.66-9.88,1.99-14.3c1.32-4.42,3.29-8.26,5.89-11.51c2.6-3.25,5.84-5.82,9.72-7.7c3.88-1.89,8.36-2.83,13.43-2.83
							c3.9,0,7.53,0.6,10.87,1.82c3.34,1.21,6.26,2.94,8.75,5.18c2.49,2.24,4.47,4.97,5.95,8.18c1.48,3.21,2.31,6.79,2.49,10.73
							h-7.74c-0.18-2.96-0.82-5.61-1.92-7.94c-1.1-2.33-2.56-4.33-4.38-5.99s-3.93-2.93-6.33-3.8c-2.4-0.88-4.97-1.31-7.71-1.31
							c-4.17,0-7.71,0.81-10.6,2.42c-2.9,1.62-5.26,3.79-7.1,6.53c-1.84,2.74-3.17,5.88-4,9.42s-1.24,7.25-1.24,11.1v2.83
							c0,3.9,0.41,7.64,1.24,11.21c0.83,3.56,2.16,6.71,3.97,9.42c1.82,2.72,4.2,4.88,7.14,6.49
							C1071.42,503.65,1074.97,504.46,1079.15,504.46z"/>
					</g>
					<g>
						<path class="st0" d="M1132.99,418.45v18.64h15.08v6.6h-15.08v48.52c0,2.56,0.26,4.61,0.77,6.16c0.52,1.55,1.21,2.76,2.09,3.63
							c0.88,0.88,1.89,1.46,3.03,1.75c1.15,0.29,2.34,0.44,3.6,0.44c1.21,0,2.38-0.08,3.5-0.24c1.12-0.16,2.13-0.3,3.03-0.44
							l0.34,6.6c-0.99,0.36-2.28,0.64-3.87,0.84c-1.59,0.2-3.17,0.3-4.74,0.3c-2.29,0-4.41-0.3-6.36-0.91
							c-1.95-0.6-3.62-1.65-5.01-3.13c-1.39-1.48-2.48-3.44-3.26-5.89c-0.79-2.45-1.18-5.48-1.18-9.12v-48.52h-13.39v-6.6h13.39
							v-18.64H1132.99z"/>
					</g>
					<g>
						<path class="st0" d="M1156.21,472.42c0-5.29,0.77-10.19,2.32-14.67c1.55-4.49,3.73-8.36,6.56-11.61
							c2.83-3.25,6.24-5.8,10.23-7.64c3.99-1.84,8.44-2.76,13.33-2.76c4.98,0,9.48,0.92,13.49,2.76c4.02,1.84,7.44,4.39,10.26,7.64
							c2.83,3.25,5,7.12,6.53,11.61c1.53,4.48,2.29,9.38,2.29,14.67v2.22c0,5.3-0.77,10.19-2.29,14.67
							c-1.52,4.48-3.7,8.36-6.53,11.61c-2.82,3.25-6.24,5.79-10.23,7.61c-4,1.81-8.46,2.72-13.39,2.72c-4.94,0-9.4-0.91-13.39-2.72
							c-4-1.82-7.42-4.35-10.26-7.61c-2.85-3.25-5.05-7.12-6.6-11.61c-1.55-4.49-2.32-9.38-2.32-14.67V472.42z M1164.29,474.64
							c0,4,0.54,7.8,1.62,11.41c1.08,3.61,2.65,6.78,4.71,9.49c2.07,2.72,4.62,4.88,7.67,6.49c3.05,1.62,6.55,2.43,10.5,2.43
							c3.95,0,7.44-0.81,10.46-2.43c3.03-1.62,5.57-3.78,7.64-6.49c2.06-2.71,3.64-5.88,4.71-9.49c1.08-3.61,1.62-7.41,1.62-11.41
							v-2.22c0-3.9-0.54-7.66-1.62-11.27c-1.07-3.61-2.65-6.79-4.71-9.52c-2.07-2.73-4.63-4.92-7.71-6.56s-6.58-2.46-10.53-2.46
							c-3.91,0-7.37,0.82-10.4,2.46c-3.03,1.64-5.57,3.83-7.64,6.56c-2.06,2.74-3.63,5.91-4.71,9.52
							c-1.08,3.61-1.62,7.37-1.62,11.27V474.64z"/>
					</g>
					<g>
						<path class="st0" d="M1268.74,443.95c-1.71-0.31-3.52-0.47-5.45-0.47c-2.74,0-5.21,0.4-7.41,1.21
							c-2.2,0.81-4.14,1.94-5.82,3.4c-1.68,1.46-3.1,3.19-4.24,5.18c-1.15,2-2.05,4.21-2.73,6.63v50h-8.01v-72.82h7.88l0.14,11.58
							c1.97-4,4.65-7.15,8.04-9.46c3.39-2.31,7.55-3.47,12.48-3.47c0.99,0,1.99,0.09,3.03,0.27c1.03,0.18,1.8,0.38,2.29,0.6
							L1268.74,443.95z"/>
					</g>
					<g>
						<path class="st0" d="M1321.98,509.91c-0.45-1.25-0.8-2.79-1.04-4.61c-0.24-1.82-0.41-3.67-0.5-5.55
							c-1.21,1.57-2.65,3.05-4.31,4.44c-1.66,1.39-3.52,2.6-5.59,3.64c-2.07,1.03-4.33,1.86-6.8,2.49
							c-2.47,0.63-5.14,0.94-8.01,0.94c-3.55,0-6.76-0.51-9.66-1.55c-2.89-1.03-5.36-2.48-7.4-4.34c-2.04-1.86-3.62-4.05-4.74-6.56
							c-1.12-2.51-1.68-5.25-1.68-8.21c0-3.54,0.76-6.74,2.29-9.59c1.53-2.85,3.73-5.27,6.6-7.27c2.87-1.99,6.36-3.52,10.47-4.58
							s8.71-1.58,13.83-1.58h14.94v-8.28c0-5.21-1.6-9.3-4.81-12.28c-3.21-2.99-7.89-4.48-14.03-4.48c-2.83,0-5.43,0.38-7.81,1.15
							c-2.38,0.76-4.43,1.81-6.16,3.16c-1.73,1.34-3.08,2.9-4.04,4.68c-0.97,1.77-1.45,3.67-1.45,5.69l-8.08-0.07
							c0-2.73,0.67-5.38,2.02-7.94c1.35-2.56,3.24-4.83,5.69-6.83c2.45-1.99,5.38-3.6,8.82-4.81c3.43-1.21,7.23-1.82,11.41-1.82
							c3.86,0,7.41,0.5,10.67,1.48c3.25,0.99,6.05,2.47,8.38,4.44s4.15,4.44,5.45,7.4c1.3,2.96,1.95,6.42,1.95,10.37v35.26
							c0,1.26,0.04,2.56,0.13,3.91c0.09,1.34,0.24,2.65,0.44,3.9c0.2,1.26,0.44,2.46,0.71,3.6c0.27,1.14,0.58,2.14,0.94,2.99v0.81
							H1321.98z M1296.67,504.12c2.91,0,5.62-0.37,8.11-1.11s4.74-1.76,6.76-3.06c2.02-1.3,3.77-2.82,5.25-4.54
							c1.48-1.72,2.67-3.6,3.57-5.62v-16.02h-13.8c-4.13,0-7.82,0.37-11.07,1.11s-6,1.81-8.24,3.2c-2.25,1.39-3.96,3.09-5.15,5.08
							c-1.19,2-1.78,4.25-1.78,6.76c0,1.98,0.38,3.83,1.15,5.55c0.76,1.73,1.85,3.23,3.26,4.51c1.41,1.28,3.13,2.29,5.15,3.03
							C1291.89,503.75,1294.16,504.12,1296.67,504.12z"/>
					</g>
				</g>
			</g>
		</g>
	</g>
	<path class="st2" d="M110,114.77h73.44v396.25H110V114.77z M371.87,511.02h73.49V114.77h-73.49V511.02z M314.64,453.8V172.01
		c0-72.33-58.85-131.18-131.24-131.18l0.03,73.95c31.59,0,57.26,25.67,57.26,57.23V453.8c0,72.33,58.85,131.18,131.17,131.18v-73.95
		C340.32,511.03,314.64,485.36,314.64,453.8z"/>
</g>
</svg>
